<?xml version="1.0" standalone="no"?>
<!DOCTYPE svg PUBLIC "-//W3C//DTD SVG 20010904//EN"
 "http://www.w3.org/TR/2001/REC-SVG-20010904/DTD/svg10.dtd">
<svg version="1.0" xmlns="http://www.w3.org/2000/svg"
 width="729.000000pt" height="729.000000pt" viewBox="0 0 729.000000 729.000000"
 preserveAspectRatio="xMidYMid meet">
<metadata>
Created by potrace 1.11, written by Peter Selinger 2001-2013
</metadata>
<g transform="translate(0.000000,729.000000) scale(0.100000,-0.100000)"
fill="#000000" stroke="none">
<path d="M2870 5570 l0 -260 -37 6 c-21 3 -56 16 -78 29 -22 12 -116 66 -210
118 l-170 96 -3 -269 -2 -270 -39 4 c-30 3 -178 72 -226 106 -30 21 -205 110
-217 110 -12 0 -14 -44 -13 -262 0 -145 -1 -271 -3 -280 -4 -17 -25 -18 -266
-18 l-261 0 1 -740 c0 -407 3 -742 5 -745 3 -2 27 -7 55 -10 27 -3 60 -8 74
-10 14 -2 50 -6 80 -10 30 -3 107 -12 170 -20 164 -20 221 -27 255 -30 47 -6
127 -16 155 -20 14 -2 50 -6 80 -10 30 -3 109 -13 175 -21 66 -8 140 -17 165
-20 25 -3 63 -8 85 -11 22 -3 54 -6 70 -8 46 -4 168 -17 186 -20 8 -2 53 -6
100 -10 46 -4 86 -8 89 -10 3 -2 42 -6 88 -10 46 -4 91 -8 100 -10 9 -2 31 -4
47 -4 l30 -1 -52 -51 c-29 -28 -53 -55 -53 -60 0 -5 195 -9 440 -9 267 0 440
4 440 9 0 6 -20 31 -44 58 -24 26 -43 49 -42 51 3 3 13 4 136 18 36 4 76 8 90
10 14 2 52 6 85 9 33 4 68 9 77 10 9 2 52 7 95 10 43 4 85 8 93 10 8 2 44 6
80 9 36 4 76 9 90 11 14 2 52 7 85 10 33 3 137 15 230 26 94 10 190 22 215 24
60 7 180 22 245 31 11 1 79 10 150 19 72 9 141 18 155 20 37 6 131 19 177 24
8 1 11 189 11 741 l0 740 -214 0 -214 0 0 285 c0 157 -3 285 -7 285 -5 0 -118
-54 -252 -120 -134 -66 -247 -120 -252 -120 -5 0 -9 114 -9 260 0 143 -2 260
-5 260 -2 0 -19 -8 -37 -18 -18 -10 -80 -44 -138 -75 -58 -31 -159 -85 -225
-121 l-120 -65 -3 290 c-1 191 -6 289 -13 289 -9 0 -74 -52 -253 -203 -28 -23
-158 -127 -290 -231 -133 -105 -242 -193 -244 -198 -2 -4 -35 -8 -73 -8 -67 0
-73 2 -152 53 -45 28 -94 59 -108 67 -44 24 -161 131 -364 332 -105 103 -196
188 -203 188 -9 0 -12 -62 -12 -260z"/>
<path d="M2008 2743 c-32 -16 -30 -7 -34 -178 -1 -87 2 -135 9 -144 9 -12 9
-13 0 -8 -9 6 -11 -5 -7 -45 8 -76 7 -111 -1 -130 -4 -11 -3 -18 5 -18 6 0 8
-5 4 -12 -14 -22 -15 -110 -2 -126 11 -13 11 -14 -1 -7 -11 6 -13 4 -8 -9 4
-10 7 -19 7 -22 0 -2 12 -10 28 -17 43 -22 133 -3 116 24 -3 5 -1 9 4 9 5 0 8
35 7 78 -1 42 2 83 8 90 6 8 6 12 0 12 -6 0 -10 41 -9 105 1 62 5 105 11 105
7 0 7 3 0 8 -6 4 -11 62 -12 131 -1 90 -5 126 -15 132 -7 5 -9 9 -3 9 6 0 6 3
0 9 -17 17 -79 19 -107 4z"/>
<path d="M3551 2746 c-11 -5 -21 -13 -21 -17 0 -4 -7 -15 -16 -23 -25 -25 -19
-100 9 -121 9 -7 14 -15 10 -18 -3 -4 1 -7 11 -7 9 0 14 -4 11 -10 -3 -5 -2
-10 3 -10 5 0 9 -7 9 -15 0 -8 -4 -15 -7 -15 -9 0 -6 -53 4 -68 10 -16 49 -5
68 20 22 29 53 91 50 101 -1 4 3 7 10 7 6 0 9 3 6 6 -3 3 -3 17 1 32 8 29 -9
94 -31 116 -34 34 -74 42 -117 22z"/>
<path d="M4590 2752 c-38 -6 -58 -34 -65 -92 -5 -42 -4 -51 7 -44 10 6 11 5 2
-7 -13 -16 -12 -249 1 -270 5 -7 4 -10 -1 -6 -13 7 -12 -86 1 -95 6 -5 6 -8
-2 -8 -8 0 -11 -27 -9 -91 2 -97 11 -113 53 -106 12 2 20 0 17 -5 -6 -9 28 -5
57 7 22 8 35 58 34 128 0 50 3 58 20 62 30 7 59 2 68 -12 4 -7 13 -13 20 -13
7 0 22 -13 34 -28 72 -91 123 -130 172 -134 17 -1 31 -7 31 -13 0 -5 4 -4 9 3
4 8 10 13 12 11 11 -7 50 11 44 20 -3 6 -1 11 5 11 18 0 8 62 -14 88 -11 12
-27 22 -36 22 -8 0 -25 7 -36 15 -12 8 -25 11 -29 7 -5 -4 -5 -2 -2 5 4 6 2
17 -5 25 -26 27 -43 52 -30 44 8 -5 12 -1 12 10 0 10 3 15 6 12 8 -8 83 65 77
75 -2 4 0 7 5 7 10 0 36 79 28 87 -3 3 -1 14 5 25 15 27 -25 145 -59 179 -46
46 -167 91 -217 82 -41 -7 -151 -9 -170 -3 -11 3 -31 4 -45 2z m299 -189 c12
-11 23 -30 24 -42 1 -11 5 -21 10 -21 4 0 5 -6 0 -12 -8 -13 -13 -33 -15 -55
-1 -7 -3 -11 -6 -8 -3 2 -17 -4 -32 -15 -17 -12 -35 -17 -46 -13 -10 3 -15 2
-12 -3 4 -5 -5 -9 -18 -9 -13 0 -24 3 -24 7 0 3 -16 5 -35 4 -40 -4 -44 0 -47
41 -1 15 -6 34 -12 42 -8 11 -8 13 1 8 9 -5 10 2 6 26 -10 64 5 74 100 72 69
-2 89 -6 106 -22z"/>
<path d="M5308 2744 c-15 -8 -29 -22 -32 -32 -13 -39 -6 -448 8 -470 4 -7 2
-12 -4 -12 -6 0 -11 -15 -10 -32 0 -18 0 -57 -1 -87 0 -81 40 -112 117 -88 34
10 45 28 45 72 0 11 0 37 0 58 0 20 0 49 0 65 0 15 0 54 0 87 -1 33 0 112 0
175 2 196 -6 252 -35 272 -17 12 -28 9 -20 -4 5 -7 3 -8 -7 -2 -22 13 -33 13
-61 -2z"/>
<path d="M6134 2748 c-3 -5 -9 -6 -12 -4 -4 2 -19 -5 -32 -16 -14 -11 -18 -17
-10 -13 8 4 6 -1 -4 -9 -13 -10 -15 -16 -7 -16 9 0 10 -4 4 -12 -5 -7 -8 -19
-7 -25 1 -7 2 -36 3 -64 1 -35 4 -48 13 -43 7 5 8 3 2 -7 -12 -20 -12 -79 1
-79 5 0 3 -5 -5 -10 -13 -9 -13 -10 0 -10 11 0 12 -2 2 -8 -8 -6 -11 -26 -9
-59 2 -49 1 -51 -18 -41 -11 6 -22 14 -25 18 -24 34 -48 66 -62 82 -10 10 -15
18 -10 18 4 0 -2 7 -12 15 -11 8 -17 15 -13 15 11 0 -13 55 -36 81 -27 30 -44
56 -57 87 -5 12 -14 22 -19 22 -6 0 -8 6 -5 13 8 21 -38 55 -83 61 -60 8 -101
-9 -111 -46 -8 -32 -7 -261 2 -283 3 -8 1 -17 -5 -20 -5 -4 -6 -11 -3 -17 6
-9 6 -65 2 -233 -2 -99 9 -116 76 -120 37 -3 53 1 69 16 20 18 21 30 22 187 0
104 -3 170 -10 174 -6 5 -5 8 3 8 7 0 10 5 7 10 -3 6 0 10 7 10 15 0 48 -20
34 -20 -5 0 1 -8 12 -19 12 -10 19 -20 17 -23 -3 -3 6 -22 20 -42 14 -20 25
-41 25 -47 0 -5 7 -12 15 -15 14 -6 31 -41 27 -56 -1 -5 5 -8 14 -8 8 0 13 -4
10 -8 -10 -16 101 -165 116 -156 4 3 8 0 8 -6 0 -7 7 -10 15 -6 8 3 15 2 15
-2 0 -4 11 -8 25 -8 14 -1 25 2 25 7 0 4 6 6 14 3 28 -11 45 36 43 114 -1 39
2 72 6 72 5 0 5 5 1 11 -3 6 -6 29 -6 50 1 28 -3 37 -11 32 -8 -4 -8 -2 1 9
18 22 22 153 6 184 -7 14 -10 23 -6 20 4 -2 8 43 9 100 2 95 0 106 -19 124
-17 15 -24 17 -30 8 -4 -8 -8 -9 -8 -2 0 13 -29 14 -36 2z m-367 -293 c0 -8
-4 -12 -9 -9 -5 3 -6 10 -3 15 9 13 12 11 12 -6z m413 -319 c0 -2 -8 -10 -17
-17 -16 -13 -17 -12 -4 4 13 16 21 21 21 13z"/>
<path d="M6488 2755 c-2 -3 -24 -6 -47 -7 -50 -2 -68 -13 -77 -52 -6 -23 -4
-27 7 -21 11 7 12 6 3 -6 -13 -17 -12 -28 3 -54 10 -17 22 -20 86 -20 41 0 75
-4 76 -10 1 -5 3 -126 5 -267 2 -189 6 -261 16 -273 7 -8 16 -12 21 -9 5 3 9
0 9 -6 0 -9 13 -9 73 3 32 6 44 37 43 107 0 38 2 70 6 70 4 0 3 11 -2 25 -6
15 -6 25 0 25 5 0 5 12 0 30 -5 19 -5 32 2 36 6 4 5 10 -3 16 -11 7 -11 11 -1
15 6 2 9 9 6 15 -4 6 -8 52 -8 102 -2 108 6 119 88 119 73 0 98 20 101 82 2
43 0 48 -28 66 -25 14 -34 16 -46 6 -12 -9 -13 -9 -7 0 5 10 -8 12 -60 8 -37
-3 -71 -8 -75 -11 -5 -3 -9 -1 -9 4 0 11 -135 10 -146 0 -4 -4 -12 -3 -19 2
-7 5 -14 8 -17 5z"/>
<path d="M586 2739 c2 -3 -7 -4 -20 -2 -18 4 -29 -2 -42 -22 -15 -23 -17 -60
-18 -347 -1 -250 2 -322 12 -326 6 -2 10 -7 7 -12 -5 -8 43 -25 60 -20 6 1 62
4 125 6 150 5 159 6 170 24 7 10 10 11 10 2 0 -18 70 19 108 58 39 39 76 90
65 90 -4 0 -3 4 2 8 17 12 34 59 30 81 -2 12 0 21 4 21 9 0 7 129 -3 185 -18
97 -78 168 -191 225 -65 33 -69 34 -195 34 -70 1 -126 -2 -124 -5z m161 -84
c0 -8 -4 -12 -9 -9 -5 3 -6 10 -3 15 9 13 12 11 12 -6z m82 -65 c30 -12 89
-60 74 -60 -4 0 2 -7 13 -16 10 -8 12 -12 4 -8 -13 7 -13 6 0 -11 8 -10 14
-26 12 -37 -2 -10 1 -18 5 -18 5 0 9 -9 9 -20 0 -11 -4 -20 -9 -20 -5 0 -5 -6
2 -13 6 -8 8 -24 5 -38 -3 -13 -6 -32 -6 -41 1 -10 -3 -18 -7 -18 -4 0 -8 -6
-8 -12 -1 -28 -9 -43 -39 -74 -18 -18 -30 -35 -27 -37 2 -3 -2 -5 -9 -4 -47 2
-78 -4 -72 -14 4 -8 1 -8 -12 -1 -11 6 -30 8 -44 6 -41 -7 -51 7 -53 79 -1 36
-5 69 -9 73 -4 4 -4 12 -1 18 11 17 10 76 -2 76 -7 0 -7 3 0 8 14 10 15 52 1
52 -6 0 -4 5 4 10 13 9 13 11 0 20 -10 6 -11 10 -3 10 8 0 12 13 11 33 -2 61
7 73 58 74 25 1 48 4 51 7 4 3 9 3 12 -2 3 -4 21 -14 40 -22z"/>
<path d="M1495 2742 c-11 -2 -25 -8 -32 -14 -17 -14 -54 -98 -48 -108 4 -6 2
-10 -2 -10 -5 0 -21 -30 -37 -67 -16 -38 -36 -74 -45 -81 -9 -7 -14 -15 -12
-18 3 -4 -3 -27 -13 -54 -1 -3 -5 -19 -9 -36 -4 -16 -23 -61 -42 -99 -19 -37
-32 -72 -28 -78 3 -6 1 -7 -5 -3 -7 4 -12 6 -12 4 0 -2 -9 -27 -19 -57 -22
-59 -13 -94 24 -89 11 1 26 -1 33 -5 6 -5 12 -4 12 2 0 6 6 8 13 5 16 -6 47
22 66 58 15 29 71 57 71 35 0 -8 3 -8 8 -2 4 6 48 10 97 10 70 0 97 -4 118
-18 15 -10 26 -21 23 -26 -3 -4 5 -20 18 -36 20 -24 30 -28 70 -28 63 1 80 16
72 66 -4 21 -14 49 -22 63 -9 13 -14 24 -10 24 3 0 -3 15 -14 33 -11 17 -20
40 -20 50 0 9 -4 17 -8 17 -5 0 -9 6 -10 13 -2 22 -7 42 -15 55 -5 6 -6 16 -2
21 3 5 -1 16 -9 23 -8 8 -16 23 -18 34 -2 10 -9 18 -16 17 -6 -2 -9 3 -6 11 3
7 -4 30 -15 50 -11 20 -18 36 -15 36 4 0 1 6 -5 13 -6 8 -8 17 -4 20 3 4 1 7
-5 7 -7 0 -12 7 -12 15 0 8 -4 15 -8 15 -5 0 -9 6 -10 13 -1 15 -24 77 -35 94
-12 19 -39 30 -62 25z m22 -314 c4 -7 8 -20 10 -28 1 -8 7 -16 13 -18 5 -2 8
-7 5 -12 -2 -4 4 -18 15 -30 23 -26 25 -34 8 -24 -10 6 -10 5 -1 -7 20 -25 1
-35 -67 -35 -61 1 -65 2 -71 26 -3 15 1 32 10 44 14 17 14 18 1 12 -8 -4 -7
-1 4 8 10 8 15 19 12 24 -3 6 1 12 9 16 8 3 15 12 15 21 0 18 26 20 37 3z"/>
<path d="M2370 2742 c-45 -15 -47 -24 -45 -210 1 -98 5 -184 10 -192 5 -8 4
-11 -2 -7 -5 3 -9 -19 -8 -56 0 -34 -2 -78 -5 -97 -8 -48 6 -127 25 -146 13
-13 43 -17 170 -18 98 -1 155 3 155 9 0 7 3 7 8 0 8 -11 65 -12 97 -2 20 7 52
47 37 47 -4 0 -6 15 -4 33 2 22 -3 39 -16 55 -18 21 -27 22 -155 22 -128 0
-137 1 -151 22 -8 12 -12 26 -9 32 10 15 12 129 3 141 -6 9 -6 49 0 65 6 15 4
36 -5 42 -6 5 -5 8 3 8 8 0 10 5 6 12 -11 17 -11 108 -1 108 4 0 3 10 -4 21
-6 12 -7 24 -2 28 11 8 10 41 -3 64 -10 17 -74 30 -104 19z m75 -281 c3 -5 2
-12 -3 -15 -5 -3 -9 1 -9 9 0 17 3 19 12 6z m-37 -76 c-3 -3 -9 2 -12 12 -6
14 -5 15 5 6 7 -7 10 -15 7 -18z"/>
<path d="M2838 2730 c-22 -18 -35 -60 -18 -60 6 0 10 -9 10 -21 0 -11 5 -17
10 -14 6 3 10 -1 10 -9 0 -9 4 -16 9 -16 5 0 12 -8 15 -17 9 -27 69 -119 86
-133 20 -17 49 -64 44 -71 -3 -5 0 -9 6 -9 6 0 9 -4 6 -9 -4 -5 0 -12 6 -14
10 -4 10 -6 1 -6 -8 -1 -10 -8 -5 -23 9 -26 8 -75 -1 -84 -4 -4 -2 -15 3 -25
6 -11 6 -20 1 -23 -10 -7 -9 -25 2 -43 4 -6 3 -14 -3 -18 -6 -4 -7 -12 -3 -18
4 -7 6 -21 5 -33 -2 -11 6 -31 16 -44 15 -19 28 -23 62 -22 24 1 47 8 52 15 4
6 8 8 8 2 1 -9 30 52 30 62 0 2 -5 1 -12 -3 -7 -5 -8 -3 -3 7 5 7 10 72 12
144 3 150 4 155 14 155 4 0 11 10 15 23 4 12 10 24 13 27 24 17 62 81 55 92
-4 7 -4 10 1 6 10 -10 37 11 29 23 -3 5 0 9 5 9 6 0 11 4 11 10 0 5 7 18 15
27 8 10 14 21 13 24 -2 3 4 14 12 23 35 43 6 78 -64 78 -40 0 -99 -25 -86 -37
3 -2 -12 -26 -32 -53 -21 -27 -38 -52 -38 -56 0 -4 -9 -17 -21 -29 -23 -25
-59 -31 -59 -11 0 8 -5 14 -11 14 -5 0 -8 4 -4 9 3 5 -2 16 -10 24 -8 9 -15
23 -15 31 0 9 -4 16 -9 16 -5 0 -12 10 -15 23 -17 58 -122 95 -168 57z"/>
<path d="M3975 2742 c-33 -1 -69 -4 -81 -7 -25 -5 -72 -45 -54 -45 8 0 9 -4 3
-12 -5 -7 -9 -34 -9 -60 1 -27 -3 -48 -8 -48 -5 0 -5 -5 0 -12 5 -7 9 -66 8
-130 0 -73 3 -115 9 -111 6 4 7 1 2 -8 -13 -19 -14 -49 -2 -49 5 0 4 -7 -3
-15 -7 -8 -8 -15 -3 -15 11 0 9 -41 -1 -59 -3 -5 0 -11 6 -14 10 -3 10 -7 -1
-20 -11 -14 -11 -17 0 -17 10 0 10 -3 2 -11 -12 -12 -6 -42 7 -34 4 2 5 -6 3
-19 -4 -18 1 -26 19 -32 70 -23 126 2 123 55 -1 17 2 31 7 31 5 0 4 9 -2 19
-5 11 -7 22 -2 25 9 5 9 47 -1 63 -14 22 59 56 93 43 14 -5 50 -6 50 -1 0 3
23 6 50 5 37 0 53 4 60 15 5 9 12 16 17 16 4 0 7 4 5 8 -1 5 2 6 7 3 19 -12
115 102 110 131 -1 4 0 10 1 13 9 23 9 64 -1 81 -6 13 -7 19 -1 15 6 -3 3 12
-5 34 -9 22 -20 40 -25 40 -4 0 -8 7 -8 16 0 8 -4 12 -10 9 -5 -3 -10 1 -10
10 0 9 -7 23 -15 31 -8 9 -15 13 -15 9 0 -4 -7 1 -16 9 -8 9 -20 14 -25 11 -5
-4 -9 -2 -9 4 0 19 -125 30 -275 23z m55 -92 c0 -5 -2 -10 -4 -10 -3 0 -8 5
-11 10 -3 6 -1 10 4 10 6 0 11 -4 11 -10z m85 -70 c35 0 59 -5 69 -16 9 -8 16
-12 16 -7 1 4 9 -8 19 -27 13 -27 15 -42 8 -65 -11 -34 -41 -71 -60 -74 -45
-6 -180 -5 -184 3 -4 5 -1 6 6 2 8 -6 10 -1 6 16 -3 12 -6 32 -5 43 0 11 0 43
1 72 0 45 3 52 22 56 12 2 28 3 35 1 8 -2 38 -4 67 -4z m-168 -85 c0 -8 -4
-12 -9 -9 -5 3 -6 10 -3 15 9 13 12 11 12 -6z"/>
<path d="M3085 1782 c-40 -2 -73 -8 -77 -15 -6 -9 -8 -9 -8 0 0 8 -13 12 -35
11 -20 -1 -32 -5 -28 -11 4 -6 1 -7 -8 -1 -20 13 -79 14 -79 2 0 -7 -4 -7 -12
-1 -12 9 -69 9 -209 2 -25 -1 -51 1 -57 5 -6 3 -13 2 -17 -4 -4 -6 -11 -8 -16
-4 -5 3 -17 0 -26 -8 -14 -11 -16 -11 -8 1 6 11 3 13 -13 9 -12 -4 -25 -2 -28
3 -3 6 -11 6 -17 1 -7 -4 -25 -8 -42 -8 -16 1 -33 -3 -37 -9 -5 -7 -8 -7 -8 0
0 6 -24 9 -57 8 -32 -1 -131 -4 -220 -6 -89 -2 -165 -6 -168 -9 -3 -3 -20 -3
-38 1 -31 7 -42 6 -99 -2 -16 -2 -28 0 -28 5 0 5 -5 6 -11 2 -9 -5 -209 -12
-566 -18 -40 0 -73 -3 -73 -7 0 -6 80 -9 436 -13 121 -1 226 -6 232 -10 7 -4
12 -3 12 3 0 6 11 6 30 1 18 -5 32 -5 36 1 3 5 10 6 16 3 15 -9 114 -8 129 2
7 4 10 3 6 -2 -7 -11 103 -12 121 -1 6 5 12 4 12 0 0 -8 64 -10 465 -16 99 -1
173 -6 177 -12 5 -7 8 -7 8 0 0 8 154 12 168 4 11 -6 110 -3 120 4 7 6 12 6
12 0 0 -13 43 -11 52 2 5 7 8 6 8 0 0 -6 16 -11 35 -12 23 0 33 3 28 11 -4 6
1 5 9 -2 9 -8 25 -13 35 -12 10 1 55 2 99 1 74 -1 84 -3 108 -27 14 -15 26
-23 26 -18 0 5 4 4 8 -3 6 -9 13 -9 31 0 13 7 23 16 21 21 -3 14 26 27 44 20
9 -3 16 -10 16 -16 0 -5 5 -6 12 -2 6 4 9 3 5 -2 -8 -13 44 -71 70 -79 24 -7
35 2 90 70 l33 39 27 -27 c34 -32 69 -32 103 -1 24 22 34 24 201 27 96 2 180
7 187 11 7 4 12 3 12 -1 0 -10 83 -9 98 1 6 3 13 2 17 -4 4 -6 12 -7 22 -2 8
5 31 6 52 3 44 -8 73 -3 65 11 -5 7 -2 8 7 2 19 -12 262 -12 271 1 5 6 8 5 8
-3 0 -7 4 -11 8 -8 5 3 80 6 168 7 87 1 164 6 171 11 6 5 14 5 16 0 6 -8 361
-6 385 3 6 2 12 0 12 -6 0 -6 6 -7 13 -2 18 11 36 12 43 2 3 -5 11 -6 17 -2 7
4 82 8 168 9 86 1 161 4 167 8 6 3 13 2 17 -4 4 -6 11 -8 16 -4 5 3 57 6 114
6 58 0 105 3 105 7 0 3 -60 7 -132 8 -212 4 -553 12 -553 13 0 1 -17 2 -38 3
-20 1 -37 -2 -37 -8 0 -7 -3 -7 -8 0 -4 6 -70 10 -162 10 -85 0 -174 3 -198 6
-23 3 -45 2 -48 -3 -3 -4 -10 -5 -16 -2 -6 4 -63 8 -127 8 -64 1 -122 5 -128
9 -9 6 -13 2 -13 -10 0 -11 -3 -14 -8 -6 -8 12 -3 12 -252 17 -118 2 -180 0
-189 -8 -11 -8 -13 -8 -7 2 5 9 -14 12 -86 13 -51 0 -151 2 -222 3 -122 3
-130 2 -156 -21 -34 -28 -35 -28 -67 -3 -34 26 -49 25 -85 -5 -16 -14 -26 -25
-22 -25 4 0 -5 -12 -20 -26 -28 -29 -39 -26 -79 24 -10 12 -23 20 -28 17 -5
-4 -6 1 -3 9 8 21 -45 34 -57 15 -5 -8 -9 -10 -9 -6 0 5 -7 1 -16 -7 -21 -22
-40 -20 -64 7 -20 21 -29 22 -168 22 -81 0 -178 -1 -217 -3z"/>
<path d="M1030 1729 c0 -3 14 -6 30 -7 17 0 30 2 30 6 0 4 -13 7 -30 7 -16 1
-30 -2 -30 -6z"/>
<path d="M6310 1730 c0 -5 5 -10 10 -10 6 0 10 5 10 10 0 6 -4 10 -10 10 -5 0
-10 -4 -10 -10z"/>
<path d="M6346 1729 c2 -4 13 -7 24 -6 23 2 17 10 -10 12 -10 1 -17 -2 -14 -6z"/>
<path d="M6430 1730 c0 -5 5 -10 11 -10 5 0 7 5 4 10 -3 6 -8 10 -11 10 -2 0
-4 -4 -4 -10z"/>
</g>
</svg>
